<?xml version="1.0" standalone="no"?>
<!DOCTYPE svg PUBLIC "-//W3C//DTD SVG 20010904//EN"
 "http://www.w3.org/TR/2001/REC-SVG-20010904/DTD/svg10.dtd">
<svg version="1.0" xmlns="http://www.w3.org/2000/svg"
 width="1024.000000pt" height="1024.000000pt" viewBox="0 0 1024.000000 1024.000000"
 preserveAspectRatio="xMidYMid meet">

<g transform="translate(0.000000,1024.000000) scale(0.100000,-0.100000)"
fill="#000000" stroke="none">
<path d="M5007 7490 c-263 -33 -468 -179 -582 -415 -106 -219 -99 -429 24
-674 22 -43 110 -191 195 -330 86 -139 156 -253 156 -254 0 -1 -184 -2 -410
-2 l-410 0 -25 -25 c-14 -14 -75 -134 -136 -265 -277 -599 -470 -1032 -471
-1057 -1 -35 26 -76 58 -88 16 -6 669 -10 1725 -10 l1701 0 29 29 c54 54 47
80 -112 428 -78 169 -190 415 -250 545 -151 332 -190 408 -219 427 -21 14 -73
16 -437 16 -227 0 -413 2 -413 4 0 2 73 116 162 254 260 405 306 515 295 717
-8 158 -56 287 -157 421 -155 207 -435 315 -723 279z m270 -431 c114 -55 177
-160 178 -294 0 -71 -4 -88 -33 -147 -37 -75 -83 -120 -157 -154 -171 -78
-372 -4 -448 165 -32 72 -30 199 4 271 34 73 76 120 138 154 101 54 213 56
318 5z m-866 -1641 l-46 -203 -233 -3 c-131 -1 -232 1 -230 6 1 5 43 98 92
206 l89 196 187 0 186 0 -45 -202z m558 120 l51 -83 0 -122 0 -123 -225 0
c-173 0 -225 3 -225 13 0 6 18 95 40 196 22 102 40 188 40 193 0 4 60 8 134 8
l134 0 51 -82z m662 -113 c21 -104 39 -196 39 -203 0 -10 -48 -12 -221 -10
l-221 3 1 138 2 137 41 65 41 66 140 -3 140 -3 38 -190z m635 -2 c49 -108 91
-200 92 -205 2 -4 -105 -7 -239 -6 l-242 3 -37 170 c-20 94 -40 185 -43 203
l-6 32 193 0 193 0 89 -197z m-1947 -415 c0 -7 -21 -107 -47 -223 l-48 -210
-306 -3 -307 -2 55 117 c30 65 78 166 106 226 l51 107 249 0 c192 0 248 -3
247 -12z m701 -213 l0 -225 -296 0 -296 0 6 23 c3 12 25 113 48 225 l42 202
248 0 248 0 0 -225z m736 5 c24 -118 43 -218 44 -222 0 -5 -129 -8 -287 -8
l-288 0 2 222 c2 123 3 224 3 226 0 1 109 1 242 0 l241 -3 43 -215z m780 -5
l102 -220 -311 -3 c-170 -1 -311 -1 -313 1 -3 3 -94 433 -94 443 0 2 116 3
257 2 l257 -3 102 -220z"/>
<path d="M4410 3753 c-74 -38 -102 -132 -60 -200 29 -48 65 -67 124 -67 185 0
198 256 14 280 -30 4 -53 0 -78 -13z"/>
<path d="M1815 3710 c-133 -21 -242 -76 -335 -169 -119 -120 -180 -277 -180
-465 0 -327 172 -567 460 -642 86 -22 244 -22 329 0 173 46 315 162 389 316
55 118 67 173 67 325 0 145 -19 227 -78 340 -68 128 -216 241 -366 280 -79 20
-207 27 -286 15z m272 -245 c100 -50 178 -154 204 -275 17 -81 7 -244 -20
-313 -33 -84 -93 -153 -171 -196 -63 -35 -68 -36 -170 -36 -99 0 -110 2 -172
33 -78 38 -130 92 -169 176 -94 201 -38 471 120 580 103 72 266 85 378 31z"/>
<path d="M5085 3696 c-130 -32 -223 -104 -271 -209 -24 -52 -28 -75 -29 -147
0 -215 81 -292 407 -385 87 -24 176 -54 198 -65 52 -26 80 -72 80 -129 0 -60
-52 -113 -128 -130 -166 -35 -306 15 -348 124 l-17 45 -115 0 -115 0 6 -56
c11 -108 85 -212 187 -264 76 -39 184 -60 304 -60 234 0 363 65 434 219 23 48
27 70 27 151 0 84 -3 102 -28 152 -30 61 -82 111 -152 146 -40 20 -100 40
-315 106 -87 26 -126 44 -155 69 -37 32 -40 39 -40 85 0 99 74 152 211 152 70
0 89 -4 135 -28 45 -23 58 -37 79 -80 l25 -52 109 0 109 0 -6 56 c-15 144
-122 257 -284 299 -69 18 -237 19 -308 1z"/>
<path d="M6913 3070 l-2 -640 120 0 119 0 0 640 0 640 -117 0 -118 0 -2 -640z"/>
<path d="M3777 3574 c-4 -4 -7 -58 -7 -121 l0 -113 -65 0 -65 0 0 -95 0 -95
64 0 64 0 5 -267 c3 -183 8 -280 17 -305 18 -51 64 -105 110 -128 53 -27 162
-42 240 -33 l65 8 3 98 3 97 -69 0 c-82 0 -115 20 -132 78 -5 20 -10 130 -10
245 l0 207 98 0 97 0 0 92 0 93 -95 5 -95 5 -2 115 -1 115 -109 3 c-59 2 -112
0 -116 -4z"/>
<path d="M3073 3346 c-59 -19 -108 -51 -143 -94 l-30 -37 0 63 0 62 -115 0
-115 0 0 -610 0 -610 115 0 115 0 0 223 0 222 20 -33 c23 -38 98 -88 154 -103
44 -12 149 -13 193 -3 51 12 125 55 173 100 87 81 130 204 130 369 0 169 -40
277 -137 365 -32 29 -76 57 -111 70 -72 27 -191 35 -249 16z m168 -221 c105
-69 131 -293 48 -418 -73 -111 -245 -118 -336 -14 -42 48 -53 92 -53 207 0
113 18 160 76 208 51 42 85 52 162 48 47 -3 73 -10 103 -31z"/>
<path d="M6168 3344 c-292 -70 -434 -397 -296 -681 138 -285 573 -335 792 -93
99 110 138 280 101 439 -61 255 -322 402 -597 335z m203 -196 c99 -29 160
-127 160 -253 0 -96 -16 -146 -63 -200 -73 -83 -197 -100 -295 -39 -119 74
-149 290 -56 412 58 76 160 109 254 80z"/>
<path d="M7614 3345 c-148 -32 -254 -129 -266 -243 l-3 -34 110 -1 110 -2 15
30 c23 45 72 65 160 65 116 0 175 -40 187 -127 l5 -41 -178 -4 c-199 -6 -250
-17 -331 -71 -33 -22 -58 -50 -78 -87 -26 -48 -30 -65 -30 -135 0 -88 18 -136
71 -189 118 -118 380 -123 512 -10 l42 36 0 -51 0 -51 106 0 105 0 -3 343 -3
342 -27 51 c-79 150 -292 225 -504 179z m316 -537 c0 -41 -20 -97 -47 -128
-73 -87 -255 -106 -312 -33 -47 59 -9 154 69 173 19 4 92 8 163 9 125 1 127 1
127 -21z"/>
<path d="M8730 3346 c-64 -17 -117 -52 -151 -99 l-29 -40 0 66 0 67 -115 0
-115 0 0 -455 0 -455 120 0 120 0 0 258 c0 141 5 275 10 296 21 93 92 136 235
144 l95 5 0 107 c0 89 -3 109 -16 114 -25 10 -105 6 -154 -8z"/>
<path d="M4353 2885 l-1 -455 119 0 119 0 0 455 0 455 -117 0 -118 0 -2 -455z"/>
</g>
</svg>
